<?xml version="1.0" encoding="utf-8"?>
<!-- Generator: Adobe Illustrator 17.1.0, SVG Export Plug-In . SVG Version: 6.00 Build 0)  -->
<!DOCTYPE svg PUBLIC "-//W3C//DTD SVG 1.1//EN" "http://www.w3.org/Graphics/SVG/1.1/DTD/svg11.dtd">
<svg version="1.1" id="Layer_1" xmlns="http://www.w3.org/2000/svg" xmlns:xlink="http://www.w3.org/1999/xlink" x="0px" y="0px"
	 viewBox="0 0 478.7 119.7" enable-background="new 0 0 478.7 119.7" xml:space="preserve" width="1280" height="320">
<g>
	<g>
		<path fill="#FFFFFF" d="M155.4,61.2h-10.3v9.8h10.3v11.2c-2.6,1.2-6.6,2-11.1,2c-1.8,0-3.5-0.1-5.1-0.4
			c-11.1-2-17.5-10.7-17.5-23.2c0-14.1,8.5-23.9,24.4-23.9c7.1,0,13.1,1.8,18.3,4.4V29.9c-5-1.8-11.5-3.3-19.2-3.3
			c-22,0-36.4,14.8-36.4,34.9c0,17.7,11.2,31.1,30.4,32.8c1.4,0.1,2.8,0.2,4.2,0.2c9.2,0,18.1-2.3,24.1-5.3v-18v-9.8H155.4z"/>
		<path fill="#FFFFFF" d="M175.1,69.7c0-14.3,7.8-25,21.4-25c13.4,0,21.1,9.6,21.1,25.4v2.8h-30.5c0.2,7.3,5.4,12.1,13.4,12.1
			c4.8,0,8.6-1.3,12.1-3.2l3.6,8.2c-5,3.1-11,4.4-16.8,4.4C182,94.4,175.1,82.5,175.1,69.7z M205.4,64.6c-0.2-5.4-2.8-10.7-9.2-10.7
			c-5.9,0-9.2,5-9.2,10.7H205.4z"/>
		<path fill="#FFFFFF" d="M223,69.5c0-14.3,9.6-24.8,23.7-24.8c14.2,0,23.8,10.6,23.8,24.8c0,14.3-9.7,24.9-23.8,24.9
			C232.6,94.4,223,83.8,223,69.5z M258.2,69.5c0-8.7-3.9-15.2-11.5-15.2c-7.5,0-11.5,6.4-11.5,15.2c0,8.9,3.9,15.3,11.5,15.3
			C254.3,84.8,258.2,78.3,258.2,69.5z"/>
		<path fill="#FFFFFF" d="M277.8,45.9h10.1l1.3,5.3c4.3-4.3,8.3-6.5,13.1-6.5c2.2,0,4.8,0.6,6.7,1.9l-4.2,10.2
			c-2.1-1.3-4-1.6-5.4-1.6c-3.1,0-5.7,1.3-9.7,4.7v33.6h-12V45.9z"/>
		<path fill="#FFFFFF" d="M306.9,103.3c0-5.2,3.6-9.4,8.5-11.5c-2-1.2-3.1-3.4-3.1-5.9c0-2.8,1.8-6.2,5.7-9c-5-2.9-7.9-8.4-7.9-14.8
			c0-8.7,6.4-17.5,19.4-17.5c4.2,0,7.5,1,9.5,2.1c0.5,0.2,0.8,0.1,1.2-0.2c2.5-2.5,5.6-4.1,11.5-4.1c1.1,0,2.5,0.1,3.2,0.2l-2.4,8.6
			c-1.1-0.3-2.4-0.5-3.5-0.5c-1,0-2.5,0.2-3.5,0.8c2.8,3,4.2,7,4.2,11.3c0,10.7-8.1,17.6-19.7,17.6c-2.2,0-4.2-0.3-5.8-0.8
			c-0.9,1.5-1.2,2.5-1.2,3.5c0,8.5,31.3,0.6,31.3,18.4c0,8.6-8.6,15.7-25.1,15.7C315,117.2,306.9,111.5,306.9,103.3z M342.7,102.9
			c0-6.8-14.8-5.4-21.2-7.9c-1.5,1.1-3.8,3.1-3.8,6.2c0,4.7,5,7.6,13,7.6C337.8,108.8,342.7,106.4,342.7,102.9z M338.2,62.6
			c0-4.7-3.2-8.9-8.5-8.9c-4.7,0-8.2,3.1-8.2,8.8c0,4.7,3,8.8,8.3,8.8C334.6,71.4,338.2,68.4,338.2,62.6z"/>
		<path fill="#FFFFFF" d="M360.5,32.2c0-4,3.1-7.2,7.3-7.2c4.2,0,7.4,3.1,7.4,7.2c0,3.9-3.2,7.1-7.4,7.1
			C363.6,39.4,360.5,36.2,360.5,32.2z M361.8,45.9h12.1v47.6h-12.1V45.9z"/>
		<path fill="#FFFFFF" d="M412.6,88.9c-3.4,3.1-7.7,5.5-13.7,5.5c-9,0-15.8-6-15.8-15.2c0-6.4,3.1-10.5,8-13
			c3.3-1.7,7.4-2.5,12.3-2.7l8.1-0.3v-1.5c0-5.5-3.6-7.9-9.1-7.9c-4.7,0-9,1.5-12.5,3.3l-3.9-7.7c5.6-3.1,11.8-4.7,18.4-4.7
			c12.8,0,19.1,5.8,19.1,17.3v19.3c0,5.5,0.2,9.7,0.9,12.2h-10L412.6,88.9z M405.1,71.5c-3.1,0.1-5.3,0.6-6.9,1.5
			c-2,1.1-2.9,3-2.9,5.4c0,4.1,2.7,6.5,7,6.5c4.4,0,7.6-2.2,9.2-3.5V71.3L405.1,71.5z"/>
		<path fill="#FFFFFF" d="M433.5,45.9h10.3l1.2,5.3c5-3.9,10.4-6.5,16.3-6.5c7.5,0,15.3,3.7,15.3,17.3v31.5h-12.1V65.7
			c0-5.8-1.2-10.6-7.3-10.6c-3.9,0-8.1,2.1-11.7,5v33.3h-12V45.9z"/>
	</g>
	<g>
		<path fill="#64a70b" d="M65.7,2c-8.3,0-15.9,3.4-21.3,8.8c-1.4,1.4-2.7,3-3.8,4.7c4.8-3.2,10.5-5,16.7-5h30.2v30.2
			c0,6.1-1.9,11.9-5,16.6c8.1-5.4,13.5-14.7,13.5-25.1V2H65.7z"/>
		<path fill="#FFFFFF" d="M49.6,18.2c-8.3,0-15.9,3.4-21.3,8.8c-1.4,1.4-2.6,2.9-3.7,4.5c4.8-3.2,10.6-5.1,16.8-5.1h30.2v30.2
			c0,6.2-1.9,12-5.1,16.8c8.1-5.4,13.4-14.6,13.4-25.1V18.2H49.6z"/>
		<path fill="#64a70b" d="M63.8,34.2v30.2c0,16.7-13.5,30.2-30.2,30.2H3.4V64.3c0-16.7,13.5-30.2,30.2-30.2H63.8z M23.9,85.7
			c1.9-1,2.5-2.2,2.5-5.2v-8.9h-8.9c-3.5,0-5.2,0.7-6.3,2.5L11,74.3h12.6v11.5L23.9,85.7z M36.5,88.2c2.3-1.3,2.9-2.3,3-5.4V58.4
			H15.6c-3.9,0-5,1.3-6.1,2.9l-0.2,0.3h26.9v26.7L36.5,88.2z M49.6,80.2c2.3-1.5,2.9-2.3,3.1-5.4V45.2H23c-3.8,0-5.4,1.7-6.3,3
			l-0.2,0.3l32.8,0v31.8L49.6,80.2z"/>
	</g>
</g>
<rect x="-44" y="-29.3" fill="none" width="568.9" height="194.4"/>
</svg>
